<svg viewBox="0 0 180 150" xmlns="http://www.w3.org/2000/svg" role="img" aria-label="小草团">
  <g class="grass-character">
    <g class="grass-legs" fill="none" stroke="#593b1d" stroke-width="5" stroke-linecap="round">
      <path class="leg leg-left" d="M 70 121 Q 74 135 88 141" />
      <path class="leg leg-right" d="M 104 121 Q 108 135 121 140" />
    </g>
    <g class="grass-body">
      <path class="grass-body-shape" d="M 85 13 Q 93 14 100 18 L 112 29 L 128 55 Q 131 59 134 51 L 143 37 Q 146 33 148 43 L 150 59 L 150 78 L 172 75 Q 176 75 172 82 L 160 90 L 144 122 Q 142 125 138 125 L 42 125 Q 38 125 36 120 L 28 95 L 8 74 Q 4 72 8 72 L 31 73 L 33 46 Q 34 42 39 45 L 50 54 Q 54 57 59 53 L 61 44 L 55 29 Q 53 25 59 27 L 68 32 L 84 45 Q 88 48 90 43 L 91 34 Z" fill="#cdd490" stroke="#593b1d" stroke-width="5.5" stroke-linecap="round" stroke-linejoin="round" />
      <g class="grass-arms" fill="none" stroke="#593b1d" stroke-width="5" stroke-linecap="round">
        <path class="arm arm-left" d="M 56 95 Q 58 110 66 111 Q 75 111 76 95" />
        <path class="arm arm-right" d="M 113 95 Q 113 111 122 111 Q 132 111 134 94" />
      </g>
      <g class="grass-face" stroke="#593b1d" stroke-linecap="round">
        <path class="eye eye-left" d="M 70 67 L 70 68" stroke-width="7" />
        <path class="eye eye-right" d="M 116 67 L 116 68" stroke-width="7" />
        <path class="mouth mouth-smile" d="M 78 79 Q 94 86 110 79" fill="none" stroke-width="4.5" />
        <path class="mouth mouth-neutral" d="M 80 82 Q 94 84 108 82" fill="none" stroke-width="4.5" opacity="0" />
        <path class="mouth mouth-frown" d="M 80 85 Q 94 76 108 85" fill="none" stroke-width="4.5" opacity="0" />
      </g>
    </g>
  </g>
</svg>
