<svg viewBox="0 0 180 135" xmlns="http://www.w3.org/2000/svg" role="img" aria-label="小草团">
  <g class="grass-character">
    <g class="grass-legs" fill="none" stroke="#5b3a20" stroke-width="7" stroke-linecap="round">
      <path class="leg leg-left" d="M 72 104 Q 69 117 77 126" />
      <path class="leg leg-right" d="M 112 104 Q 111 118 122 124" />
    </g>
    <g class="grass-body">
      <path class="grass-body-shape" d="M 17 104 L 5 85 Q 1 78 9 75 L 26 74 L 24 59 Q 23 52 31 54 L 45 56 L 42 40 Q 40 32 48 36 L 62 47 L 64 27 Q 64 18 72 24 L 85 39 L 92 13 Q 95 4 101 13 L 113 36 L 125 22 Q 131 15 135 25 L 142 45 L 155 35 Q 162 30 162 40 L 159 61 L 173 60 Q 181 60 176 68 L 161 84 L 168 101 Q 171 109 161 110 L 25 110 Q 20 110 17 104 Z" fill="#ced98c" stroke="#5b3a20" stroke-width="8" stroke-linecap="round" stroke-linejoin="round" />
      <path class="grass-highlight" d="M 50 48 Q 79 20 112 38" fill="none" stroke="#e1e8aa" stroke-width="5" stroke-linecap="round" opacity="0.55" />
      <g class="grass-arms" fill="none" stroke="#5b3a20" stroke-width="7" stroke-linecap="round">
        <path class="arm arm-left" d="M 48 79 Q 51 96 62 96 Q 72 96 74 80" />
        <path class="arm arm-right" d="M 112 79 Q 112 96 124 96 Q 136 96 138 79" />
      </g>
      <g class="grass-face" stroke="#5b3a20" stroke-linecap="round">
        <path class="eye eye-left" d="M 69 63 L 69 64" stroke-width="9" />
        <path class="eye eye-right" d="M 117 63 L 117 64" stroke-width="9" />
        <path class="mouth mouth-smile" d="M 80 76 Q 94 86 108 76" fill="none" stroke-width="6" />
        <path class="mouth mouth-neutral" d="M 82 79 Q 94 81 106 79" fill="none" stroke-width="6" opacity="0" />
        <path class="mouth mouth-frown" d="M 82 84 Q 94 74 106 84" fill="none" stroke-width="6" opacity="0" />
      </g>
    </g>
  </g>
</svg>
