<svg viewBox="0 0 180 150" xmlns="http://www.w3.org/2000/svg" role="img" aria-label="小草团">
  <g class="grass-character">
    <g class="grass-legs" fill="none" stroke="#5b3a20" stroke-width="7" stroke-linecap="round">
      <path class="leg leg-left" d="M 72 117 Q 69 132 78 142" />
      <path class="leg leg-right" d="M 112 117 Q 112 132 123 140" />
    </g>
    <g class="grass-body">
      <path class="grass-body-shape" d="M 30 117 L 8 92 Q 5 84 13 81 L 28 80 L 26 63 Q 25 56 33 58 L 47 60 L 44 42 Q 42 34 50 38 L 64 49 L 66 29 Q 66 20 74 26 L 86 41 L 93 13 Q 96 4 102 13 L 114 38 L 126 23 Q 132 16 136 26 L 143 47 L 156 36 Q 163 31 163 41 L 159 63 L 152 80 L 167 81 Q 175 84 172 92 L 150 117 Q 148 125 140 125 L 40 125 Q 32 125 30 117 Z" fill="#ced98c" stroke="#5b3a20" stroke-width="8" stroke-linecap="round" stroke-linejoin="round" />
      <g class="grass-arms" fill="none" stroke="#5b3a20" stroke-width="7" stroke-linecap="round">
        <path class="arm arm-left" d="M 49 92 Q 52 110 63 110 Q 74 110 76 92" />
        <path class="arm arm-right" d="M 110 92 Q 111 110 123 110 Q 136 110 138 91" />
      </g>
      <g class="grass-face" stroke="#5b3a20" stroke-linecap="round">
        <path class="eye eye-left" d="M 69 62 L 69 63" stroke-width="9" />
        <path class="eye eye-right" d="M 117 62 L 117 63" stroke-width="9" />
        <path class="mouth mouth-smile" d="M 80 73 Q 94 81 108 73" fill="none" stroke-width="6" />
        <path class="mouth mouth-neutral" d="M 82 76 Q 94 78 106 76" fill="none" stroke-width="6" opacity="0" />
        <path class="mouth mouth-frown" d="M 82 80 Q 94 70 106 80" fill="none" stroke-width="6" opacity="0" />
      </g>
    </g>
  </g>
</svg>
