<svg viewBox="-16 0 172 120" xmlns="http://www.w3.org/2000/svg" role="img" aria-label="水滴魚（窩窩頭）">
  <g class="fins">
    <path class="fin fin-left" d="M 25 68 C 6 64 -6 77 -3 89 C 0 98 13 95 23 88 Z" fill="#eeaebb" />
    <path class="fin fin-right" d="M 115 68 C 134 64 146 77 143 89 C 140 98 127 95 117 88 Z" fill="#eeaebb" />
  </g>
  <path class="body-shape" d="M 70 15 C 36 15 13 40 11 65 C 10 83 14 100 27 108 C 39 114 56 115 70 115 C 84 115 101 114 113 108 C 126 100 130 83 129 65 C 127 40 104 15 70 15 Z" fill="#f7dde2" />
  <g class="face" transform="translate(3.5 3.8) scale(0.95)">
    <g class="eyes">
      <circle class="eye eye-left" cx="45" cy="58" r="6.3" fill="#2e2a2c" />
      <circle class="eye eye-right" cx="95" cy="58" r="6.3" fill="#2e2a2c" />
    </g>
    <g class="tears">
      <path class="tear tear-left" d="M 45 64 C 48 70 48 76 45 78 C 42 76 42 70 45 64 Z" fill="#6fb3e0" />
      <path class="tear tear-right" d="M 95 64 C 98 70 98 76 95 78 C 92 76 92 70 95 64 Z" fill="#6fb3e0" />
    </g>
    <g class="mouth">
      <path d="M 37 94 Q 70 78 103 94" stroke="#eeaebb" stroke-width="24" fill="none" stroke-linecap="round" stroke-linejoin="round" />
      <path d="M 43 89 Q 70 75 97 89" stroke="#f6cdd9" stroke-width="8" fill="none" stroke-linecap="round" opacity="0.6" />
    </g>
    <g class="nose">
      <path d="M 70 64 C 79 74 84 81 84 87 C 84 94 78 98 70 98 C 62 98 56 94 56 87 C 56 81 61 74 70 64 Z" fill="#fbeaef" />
      <ellipse cx="65" cy="83" rx="2.8" ry="2.2" fill="white" opacity="0.9" />
    </g>
  </g>
</svg>
