<svg viewBox="0 0 100 100" xmlns="http://www.w3.org/2000/svg">
  <path d="M 7 42 L 43 42 C 43 58 33 66 25 66 C 17 66 7 58 7 42 Z" fill="#eef3f4" opacity="0.6" />
  <path d="M 7 42 L 43 42 C 43 58 33 66 25 66 C 17 66 7 58 7 42 Z" fill="none" stroke="#7a6f66" stroke-width="3.5" />
  <path d="M 57 42 L 93 42 C 93 58 83 66 75 66 C 67 66 57 58 57 42 Z" fill="#eef3f4" opacity="0.6" />
  <path d="M 57 42 L 93 42 C 93 58 83 66 75 66 C 67 66 57 58 57 42 Z" fill="none" stroke="#7a6f66" stroke-width="3.5" />
  <path d="M 43 44 L 57 44" stroke="#7a6f66" stroke-width="3.5" stroke-linecap="round" />
</svg>
