<svg viewBox="0 0 100 100" xmlns="http://www.w3.org/2000/svg">
  <path d="M 28 30 L 72 30 L 66 84 C 65 89 61 92 56 92 L 44 92 C 39 92 35 89 34 84 Z" fill="#efe0cf" />
  <path d="M 30 48 L 70 48 L 66 84 C 65 89 61 92 56 92 L 44 92 C 39 92 35 89 34 84 Z" fill="#d3a878" />
  <g fill="#4a3a30">
    <circle cx="43" cy="80" r="4" />
    <circle cx="57" cy="82" r="4" />
    <circle cx="50" cy="71" r="4" />
  </g>
  <rect x="24" y="23" width="52" height="9" rx="4.5" fill="#f7f3ed" />
  <rect x="56" y="4" width="7" height="30" rx="3.5" fill="#e08fa4" transform="rotate(12 59 19)" />
</svg>
