<svg viewBox="0 0 140 120" xmlns="http://www.w3.org/2000/svg" role="img" aria-label="水滴魚">
  <g class="fins">
    <path class="fin fin-left" d="M 28 55 Q -8 46 4 72 Q -10 84 20 80 Z" fill="#eeaebb" />
    <path class="fin fin-right" d="M 112 55 Q 148 46 136 72 Q 150 84 120 80 Z" fill="#eeaebb" />
  </g>
  <ellipse class="body-shape" cx="70" cy="60" rx="58" ry="48" fill="#f7dde2" />
  <ellipse class="body-shading" cx="70" cy="86" rx="44" ry="26" fill="#f1cdd6" opacity="0.55" />
  <g class="eyes">
    <circle class="eye eye-left" cx="45" cy="50" r="5.5" fill="#2e2a2c" />
    <circle class="eye eye-right" cx="95" cy="50" r="5.5" fill="#2e2a2c" />
  </g>
  <g class="tears">
    <path class="tear tear-left" d="M 45 56 C 48 62 48 68 45 70 C 42 68 42 62 45 56 Z" fill="#6fb3e0" />
    <path class="tear tear-right" d="M 95 56 C 98 62 98 68 95 70 C 92 68 92 62 95 56 Z" fill="#6fb3e0" />
  </g>
  <g class="mouth">
    <path d="M 38 90 Q 70 74 102 90" stroke="#eeaebb" stroke-width="24" fill="none" stroke-linecap="round" stroke-linejoin="round" />
    <path d="M 43 85 Q 70 71 97 85" stroke="#f6cdd9" stroke-width="8" fill="none" stroke-linecap="round" opacity="0.6" />
  </g>
  <g class="nose">
    <path d="M 70 54 C 83 68 90 78 90 87 C 90 98 81 105 70 105 C 59 105 50 98 50 87 C 50 78 57 68 70 54 Z" fill="#fbeaef" />
    <ellipse cx="63" cy="75" rx="3.5" ry="2.8" fill="white" opacity="0.9" />
  </g>
</svg>
